# xmcd
#
# Track frame offsets:
#	150
#	14220
#	28725
#	43760
#	57512
#	73428
#	83500
#	94997
#	108895
#	122072
#	133642
#	147650
#	161202
#	176402
#	190887
#	201720
#	217470
#	233670
#	246498
#	259603
#	272871
#	279327
#	294205
# Disc length: 4097 seconds
# Revision: 1
# Processed by: cddbd v1.5.2PL0 Copyright (c) Steve Scherf et al.
#
# Submitted via: libkcddb 0.10
#
DISCID=780fff17
DTITLE=Various Artist - Bucket Of Blues
DYEAR=2008
DGENRE=Blues
TTITLE0=Charley Patton - Banty Rooster
TTITLE1=Charley Patton - Mississippi Boll Weavil Blues
TTITLE2=Charley Patton - Moon Goin' Down
TTITLE3=Blind Willie Johnson - God Moves On The Water
TTITLE4=Son House - Shetland Pony Blues
TTITLE5=Son House - Country Farm Blues
TTITLE6=Robert Johnson - Crossroads Blues
TTITLE7=Robert Johnson - Terraplane Blues
TTITLE8=Robert Johnson - Come On In My Kitchen
TTITLE9=Robert Johnson - Walkin' Blues
TTITLE10=Muddy Waters - I Be's Troubled
TTITLE11=Fred McDowell - Good Morning Little School Girl
TTITLE12=Fred McDowell - The Girl That I'm Lovin'
TTITLE13=Fred McDowell - Some Day Baby
TTITLE14=Fred McDowell - When The Saints Go Marchin' In
TTITLE15=Skip James - Hard Time Killin' Floor Blues
TTITLE16=Johnny Shines - Sittin' On Top Of The World
TTITLE17=Johnny Winter - Dallas
TTITLE18=Ry Cooder - Dark Was The Night
TTITLE19=Big Bill Broonzy - Hey Hey Baby
TTITLE20=Tom Ball - Big Bill Style Blues
TTITLE21=Tom Ball and Kenny Sultan - Chicken Ala Blues
TTITLE22=Tom Ball and Kenny Sultan - Days Like This
EXTD=
EXTT0=
EXTT1=
EXTT2=
EXTT3=
EXTT4=
EXTT5=
EXTT6=
EXTT7=
EXTT8=
EXTT9=
EXTT10=
EXTT11=
EXTT12=
EXTT13=
EXTT14=
EXTT15=
EXTT16=
EXTT17=
EXTT18=
EXTT19=
EXTT20=
EXTT21=
EXTT22=
PLAYORDER=
